<svg xmlns="http://www.w3.org/2000/svg" width="4" height="12" viewBox="0 0 4 12" fill="none">
  <path d="M2 7.5C1.70284 7.49612 1.41894 7.37634 1.2088 7.1662C0.998659 6.95606 0.878885 6.67216 0.875 6.375V1.125C0.875 0.826631 0.993527 0.540484 1.20451 0.329505C1.41548 0.118527 1.70163 0 2 0C2.29837 0 2.58452 0.118527 2.79549 0.329505C3.00647 0.540484 3.125 0.826631 3.125 1.125V6.375C3.12111 6.67216 3.00134 6.95606 2.7912 7.1662C2.58106 7.37634 2.29716 7.49612 2 7.5Z" fill="#D02536"/>
  <path d="M2 12C1.70284 11.9961 1.41894 11.8763 1.2088 11.6662C0.998659 11.4561 0.878885 11.1722 0.875 10.875V10.125C0.875 9.82663 0.993527 9.54048 1.20451 9.32951C1.41548 9.11853 1.70163 9 2 9C2.29837 9 2.58452 9.11853 2.79549 9.32951C3.00647 9.54048 3.125 9.82663 3.125 10.125V10.875C3.12112 11.1722 3.00134 11.4561 2.7912 11.6662C2.58106 11.8763 2.29716 11.9961 2 12Z" fill="#D02536"/>
</svg>